<svg width="667" height="549" viewBox="0 0 667 549" fill="none" xmlns="http://www.w3.org/2000/svg">
<mask id="mask0" mask-type="alpha" maskUnits="userSpaceOnUse" x="0" y="0" width="667" height="549">
<rect width="667" height="549" fill="#C4C4C4"/>
</mask>
<g mask="url(#mask0)">
<path d="M185.89 219.499C167.69 232.299 144.39 235.399 123.49 227.699C70.9897 208.299 18.8897 257.599 35.2897 311.199C41.7897 332.499 37.4897 355.699 23.5897 373.099C-11.1103 417.199 19.4897 481.899 75.4897 482.699C97.6897 482.999 118.39 494.299 130.69 512.799C161.69 559.499 232.79 550.199 250.89 497.099C258.09 475.999 275.19 459.799 296.69 453.799C350.69 438.599 363.89 367.999 319.19 334.399C301.39 321.099 291.39 299.799 292.29 277.499C294.59 221.399 231.79 187.199 185.89 219.499Z" fill="#BFB0FF"/>
<mask id="mask1" mask-type="alpha" maskUnits="userSpaceOnUse" x="6" y="207" width="338" height="336">
<path d="M34.8902 306.499C40.8902 327.999 35.9902 350.999 21.7902 367.999C-14.1098 410.999 14.9902 476.599 70.9902 478.999C93.1902 479.899 113.59 491.799 125.49 510.699C155.39 558.199 226.69 550.999 246.09 498.399C253.79 477.499 271.29 461.899 292.89 456.399C347.19 442.799 362.19 372.699 318.19 337.799C300.69 323.999 291.19 302.399 292.59 280.199C296.29 224.199 234.19 188.199 187.59 219.199C169.09 231.499 145.69 233.899 124.99 225.599C73.0902 204.699 19.7902 252.399 34.8902 306.499Z" fill="#006BFF"/>
</mask>
<g mask="url(#mask1)">
<path d="M401.889 279.599L438.089 458.899C440.089 468.999 434.089 478.899 424.689 480.999L239.889 521.599C230.389 523.699 221.089 517.199 218.989 506.999L182.689 327.599C169.589 262.899 208.089 199.799 268.589 186.499C329.089 173.299 388.789 214.899 401.889 279.599Z" stroke="white" stroke-width="1.2973" stroke-miterlimit="10" stroke-dasharray="2.69 2.69"/>
<path d="M397.59 282.199L432.39 454.099C434.39 463.799 428.59 473.299 419.49 475.299L242.39 514.199C233.29 516.199 224.39 509.899 222.39 500.199L187.59 328.299C175.09 266.299 211.89 205.799 269.89 192.999C327.89 180.399 385.09 220.299 397.59 282.199Z" stroke="white" stroke-width="1.2973" stroke-miterlimit="10" stroke-dasharray="2.73 2.73"/>
<path d="M393.39 284.899L426.69 449.299C428.59 458.599 423.09 467.599 414.39 469.499L244.99 506.699C236.29 508.599 227.79 502.599 225.89 493.399L192.59 328.999C180.59 269.699 215.89 211.799 271.29 199.599C326.69 187.499 381.39 225.599 393.39 284.899Z" stroke="white" stroke-width="1.2973" stroke-miterlimit="10" stroke-dasharray="2.69 2.69"/>
<path d="M389.189 287.599L420.889 444.499C422.689 453.399 417.389 461.999 409.089 463.799L247.389 499.299C239.089 501.099 230.889 495.399 229.189 486.599L197.489 329.699C186.089 273.099 219.689 217.799 272.689 206.199C325.489 194.599 377.689 230.999 389.189 287.599Z" stroke="white" stroke-width="1.2973" stroke-miterlimit="10" stroke-dasharray="2.74 2.74"/>
<path d="M384.99 290.299L415.19 439.799C416.89 448.199 411.89 456.499 403.99 458.199L249.99 491.999C242.09 493.699 234.29 488.299 232.59 479.899L202.39 330.399C191.49 276.499 223.49 223.899 273.99 212.799C324.29 201.699 374.09 236.399 384.99 290.299Z" stroke="white" stroke-width="1.2973" stroke-miterlimit="10" stroke-dasharray="2.69 2.69"/>
<path d="M380.688 292.999L409.388 434.999C410.988 442.999 406.288 450.799 398.788 452.499L252.488 484.599C244.988 486.199 237.588 481.099 235.988 473.099L207.288 331.099C196.888 279.899 227.388 229.899 275.288 219.399C323.088 208.799 370.388 241.799 380.688 292.999Z" stroke="white" stroke-width="1.2973" stroke-miterlimit="10" stroke-dasharray="2.74 2.74"/>
<path d="M376.489 295.599L403.689 430.099C405.189 437.699 400.689 445.099 393.589 446.699L254.989 477.199C247.889 478.799 240.889 473.899 239.389 466.299L212.189 331.799C202.389 283.299 231.189 235.899 276.589 225.899C321.989 215.899 366.689 247.099 376.489 295.599Z" stroke="white" stroke-width="1.2973" stroke-miterlimit="10" stroke-dasharray="2.69 2.69"/>
<path d="M372.29 298.299L397.99 425.399C399.49 432.599 395.19 439.599 388.49 440.999L257.59 469.799C250.89 471.299 244.29 466.699 242.79 459.499L217.09 332.399C207.79 286.599 235.09 241.799 277.89 232.399C320.79 222.999 362.99 252.499 372.29 298.299Z" stroke="white" stroke-width="1.2973" stroke-miterlimit="10" stroke-dasharray="2.75 2.75"/>
<path d="M368.089 300.999L392.289 420.599C393.689 427.299 389.689 433.899 383.289 435.299L259.989 462.399C253.689 463.799 247.489 459.399 246.089 452.699L221.889 333.099C213.189 289.999 238.789 247.799 279.189 238.999C319.589 230.099 359.289 257.899 368.089 300.999Z" stroke="white" stroke-width="1.2973" stroke-miterlimit="10" stroke-dasharray="2.69 2.69"/>
<path d="M363.789 303.699L386.489 415.799C387.789 422.099 383.989 428.299 378.089 429.599L262.489 454.999C256.589 456.299 250.689 452.199 249.489 445.899L226.789 333.799C218.589 293.399 242.689 253.899 280.489 245.599C318.389 237.199 355.689 263.299 363.789 303.699Z" stroke="white" stroke-width="1.2973" stroke-miterlimit="10" stroke-dasharray="2.75 2.75"/>
<path d="M359.59 306.399L380.79 411.099C381.99 416.999 378.49 422.799 372.99 423.999L265.09 447.699C259.59 448.899 254.09 445.099 252.89 439.199L231.69 334.499C224.09 296.799 246.49 259.899 281.79 252.099C317.19 244.299 351.99 268.599 359.59 306.399Z" stroke="white" stroke-width="1.2973" stroke-miterlimit="10" stroke-dasharray="2.69 2.69"/>
<path d="M355.389 308.999L375.089 406.199C376.189 411.699 372.889 416.999 367.789 418.199L267.589 440.199C262.489 441.299 257.389 437.799 256.289 432.299L236.589 335.099C229.489 300.099 250.289 265.799 283.089 258.599C315.989 251.399 348.289 273.999 355.389 308.999Z" stroke="white" stroke-width="1.2973" stroke-miterlimit="10" stroke-dasharray="2.76 2.76"/>
<path d="M351.188 311.699L369.288 401.399C370.288 406.499 367.288 411.399 362.588 412.399L270.088 432.699C265.388 433.699 260.688 430.499 259.688 425.399L241.588 335.699C235.088 303.399 254.288 271.699 284.588 265.099C314.788 258.499 344.588 279.399 351.188 311.699Z" stroke="white" stroke-width="1.2973" stroke-miterlimit="10" stroke-dasharray="2.69 2.69"/>
<path d="M346.888 314.399L363.488 396.699C364.388 401.299 361.688 405.899 357.288 406.799L272.488 425.399C268.188 426.399 263.888 423.399 262.888 418.699L246.288 336.399C240.288 306.799 257.888 277.799 285.688 271.699C313.588 265.699 340.888 284.799 346.888 314.399Z" stroke="white" stroke-width="1.2973" stroke-miterlimit="10" stroke-dasharray="2.78 2.78"/>
<path d="M342.69 317.099L357.79 391.899C358.69 396.099 356.09 400.199 352.19 401.099L275.19 417.999C271.29 418.899 267.39 416.099 266.49 411.899L251.39 337.099C245.89 310.099 261.99 283.799 287.19 278.299C312.39 272.799 337.29 290.099 342.69 317.099Z" stroke="white" stroke-width="1.2973" stroke-miterlimit="10" stroke-dasharray="2.69 2.69"/>
<path d="M338.489 319.799L352.089 387.099C352.889 390.899 350.589 394.599 347.089 395.399L277.689 410.599C274.089 411.399 270.589 408.899 269.889 405.099L256.289 337.799C251.389 313.499 265.789 289.799 288.489 284.799C311.189 279.899 333.589 295.499 338.489 319.799Z" stroke="white" stroke-width="1.2973" stroke-miterlimit="10" stroke-dasharray="2.8 2.8"/>
<path d="M334.289 322.399L346.389 382.199C347.089 385.599 345.089 388.899 341.889 389.599L280.189 403.199C276.989 403.899 273.889 401.699 273.189 398.299L261.189 338.499C256.789 316.899 269.689 295.799 289.889 291.399C309.989 286.999 329.889 300.899 334.289 322.399Z" stroke="white" stroke-width="1.2973" stroke-miterlimit="10" stroke-dasharray="2.69 2.69"/>
<path d="M330.09 325.099L340.69 377.499C341.29 380.499 339.49 383.299 336.79 383.899L282.79 395.799C279.99 396.399 277.29 394.499 276.69 391.499L266.09 339.099C262.29 320.199 273.49 301.799 291.19 297.899C308.79 294.099 326.19 306.199 330.09 325.099Z" stroke="white" stroke-width="1.2973" stroke-miterlimit="10" stroke-dasharray="2.83 2.83"/>
<path d="M325.789 327.799L334.889 372.699C335.389 375.199 333.889 377.699 331.489 378.199L285.189 388.399C282.789 388.899 280.489 387.299 279.989 384.799L270.889 339.899C267.589 323.699 277.289 307.899 292.389 304.599C307.589 301.199 322.589 311.599 325.789 327.799Z" stroke="white" stroke-width="1.2973" stroke-miterlimit="10" stroke-dasharray="2.7 2.7"/>
<path d="M321.59 330.499L329.19 367.899C329.59 369.999 328.39 372.099 326.39 372.499L287.79 380.999C285.79 381.399 283.89 380.099 283.39 377.999L275.79 340.599C273.09 327.099 281.09 313.899 293.69 311.099C306.39 308.299 318.89 316.999 321.59 330.499Z" stroke="white" stroke-width="1.2973" stroke-miterlimit="10" stroke-dasharray="2.53 2.53"/>
<path d="M317.388 333.199L323.488 363.199C323.788 364.899 322.788 366.499 321.288 366.899L290.388 373.699C288.788 373.999 287.288 372.999 286.888 371.299L280.788 341.299C278.588 330.499 284.988 319.899 295.088 317.699C305.188 315.499 315.188 322.399 317.388 333.199Z" stroke="white" stroke-width="1.2973" stroke-miterlimit="10" stroke-dasharray="2.7 2.7"/>
<path d="M313.19 335.799L317.69 358.299C317.99 359.599 317.19 360.799 315.99 361.099L292.79 366.199C291.59 366.499 290.39 365.599 290.19 364.399L285.69 341.899C284.09 333.799 288.89 325.899 296.49 324.199C303.99 322.499 311.49 327.699 313.19 335.799Z" stroke="white" stroke-width="1.2973" stroke-miterlimit="10" stroke-dasharray="2.43 2.43"/>
<path d="M308.889 338.499L311.889 353.499C312.089 354.299 311.589 355.199 310.789 355.399L295.289 358.799C294.489 358.999 293.689 358.399 293.589 357.599L290.589 342.599C289.489 337.199 292.689 331.899 297.789 330.799C302.789 329.599 307.789 333.099 308.889 338.499Z" stroke="white" stroke-width="1.2973" stroke-miterlimit="10" stroke-dasharray="2.71 2.71"/>
</g>
<path d="M541.101 183.8C547.101 189.1 556.701 188.4 562.201 182.2L566.101 185.6C558.801 193.9 545.901 194.9 537.701 187.7L541.101 183.8ZM495.301 143.5L541.101 183.7L537.701 187.6L491.901 147.4L495.301 143.5ZM494.201 122.5C488.701 128.7 489.301 138.3 495.301 143.6L491.901 147.5C483.601 140.2 483.001 127.4 490.301 119L494.201 122.5ZM492.601 93.9999C500.901 101.3 501.501 114.1 494.201 122.5L490.301 119.1C495.801 112.9 495.201 103.3 489.201 97.9999L492.601 93.9999ZM491.501 72.8999C486.001 79.0999 486.601 88.6999 492.601 93.9999L489.201 97.8999C480.901 90.5999 480.301 77.7999 487.601 69.3999L491.501 72.8999ZM532.501 26.2999L491.501 72.8999L487.601 69.4999L528.601 22.8999L532.501 26.2999ZM553.601 24.6999C547.601 19.3999 538.101 19.8999 532.501 26.2999L528.601 22.8999C536.101 14.3999 548.801 13.5999 557.001 20.7999L553.601 24.6999ZM582.001 22.5999C574.701 30.8999 561.801 31.8999 553.601 24.6999L557.001 20.7999C563.001 26.0999 572.601 25.3999 578.101 19.1999L582.001 22.5999ZM603.101 20.9999C596.901 15.5999 587.501 16.2999 582.001 22.5999L578.101 19.1999C585.401 10.8999 598.101 9.69994 606.501 17.0999L603.101 20.9999ZM648.801 61.2999L603.101 20.9999L606.501 17.0999L652.301 57.2999L648.801 61.2999ZM650.001 82.3999C655.501 76.1999 654.901 66.5999 648.901 61.2999L652.301 57.3999C660.601 64.6999 661.201 77.4999 653.901 85.8999L650.001 82.3999ZM651.601 110.8C643.301 103.5 642.701 90.6999 650.001 82.2999L653.901 85.6999C648.401 91.8999 649.001 101.5 655.001 106.8L651.601 110.8ZM652.701 131.9C658.201 125.7 657.601 116.1 651.601 110.8L655.001 106.9C663.301 114.2 663.901 127 656.601 135.4L652.701 131.9ZM611.701 178.6L652.701 132L656.601 135.4L615.601 182L611.701 178.6ZM590.601 180.1C596.601 185.4 606.201 184.7 611.701 178.5L615.601 181.9C608.301 190.2 595.401 191.2 587.201 184L590.601 180.1ZM562.201 182.2C569.501 173.9 582.401 172.9 590.601 180.1L587.201 184C581.201 178.7 571.601 179.4 566.101 185.6L562.201 182.2Z" fill="#E55CFF"/>
<path d="M601 79.7H109V387.4H601V79.7Z" fill="#3E3EE5"/>
<mask id="mask2" mask-type="alpha" maskUnits="userSpaceOnUse" x="36" y="42" width="721" height="430">
<path d="M36 42H757V472H36V42Z" fill="#C4C4C4"/>
</mask>
<g mask="url(#mask2)">
<path d="M48.6992 421.5C48.6992 421.1 104.499 420.7 105.599 420.7H610.299C611.399 420.7 662.399 421.1 662.399 421.5C662.399 421.9 611.399 422.3 610.299 422.3H105.599C104.499 422.3 48.6992 422 48.6992 421.5Z" fill="black" fill-opacity="0.75"/>
<path d="M101.398 79.8C101.398 73.9 106.198 69.1 112.098 69.1H599.298C605.198 69.1 609.998 73.9 609.998 79.8V399.5C609.998 405.4 605.198 410.2 599.298 410.2H112.098C106.198 410.2 101.398 405.4 101.398 399.5V79.8Z" fill="black"/>
<path d="M58.0988 404.6C57.6988 404.6 57.2988 405 57.2988 405.4V414.3C57.2988 416.9 89.5988 421.6 113.799 421.6H604.799C628.999 421.6 654.899 417 654.899 414.3V405.4C654.899 405 654.499 404.6 654.099 404.6H58.0988V404.6Z" fill="#777777"/>
<path d="M57.2988 414.3H654.799C654.799 416.9 628.999 421.6 604.699 421.6H113.699C89.5988 421.5 57.2988 416.9 57.2988 414.3Z" fill="url(#paint0_linear)"/>
<path d="M312.1 404.6H399.3C399.3 408.6 394.5 409.4 391.2 409.4H320.1C316.9 409.4 312.1 408.6 312.1 404.6Z" fill="url(#paint1_linear)"/>
<path d="M601 80.2999H110V386.8H601V80.2999Z" fill="white"/>
<mask id="mask3" mask-type="alpha" maskUnits="userSpaceOnUse" x="109" y="80" width="492" height="307">
<path d="M600.498 80.2H109.398V386.8H600.498V80.2Z" fill="white"/>
</mask>
<g mask="url(#mask3)">
<path d="M-359.901 -113.5H-150.701V541.8H572.099C518.699 782.7 303.699 962.9 46.6989 962.9H-360.001C-406.501 962.9 -444.201 925.2 -444.201 878.7V-29.3C-444.101 -75.8 -406.401 -113.5 -359.901 -113.5Z" fill="#004796"/>
<path d="M-150.801 -113.5H46.5992C147.199 -113.5 241.299 -85.9 321.799 -37.9C314.999 5 294.999 46.2 261.999 79.2C127.499 213.7 222.799 443.7 412.999 443.7H584.499C583.299 477.3 579.099 510 572.099 541.7H-150.801V-113.5Z" fill="#004796"/>
<path d="M926.8 230.2V-128.8H1133.2V541.9H572.1C579.1 510.2 583.4 477.4 584.5 443.9H713.3C831.2 443.7 926.8 348.1 926.8 230.2Z" fill="#BFB0FF"/>
<path d="M316.799 -128.9H926.799V230.2C926.799 348.2 831.199 443.7 713.299 443.7H584.499C584.699 437.4 584.799 431 584.799 424.6C584.799 227.9 479.299 55.9 321.799 -38C326.699 -68.1 324.999 -99.2 316.799 -128.9Z" fill="#BFB0FF"/>
<path d="M261.999 79.2C294.999 46.2 314.999 4.99998 321.799 -37.9C479.399 56 584.799 228 584.799 424.7C584.799 431.1 584.699 437.4 584.499 443.8H412.999C222.799 443.7 127.499 213.8 261.999 79.2Z" fill="#006BFF"/>
</g>
</g>
</g>
<defs>
<linearGradient id="paint0_linear" x1="356.109" y1="414.254" x2="356.109" y2="421.513" gradientUnits="userSpaceOnUse">
<stop stop-color="#8A8A8A"/>
<stop offset="1" stop-color="#C4C4C4" stop-opacity="0"/>
</linearGradient>
<linearGradient id="paint1_linear" x1="399.267" y1="406.996" x2="312.059" y2="406.996" gradientUnits="userSpaceOnUse">
<stop stop-color="#8A8A8A"/>
<stop offset="0.3594" stop-color="#AAAAAA" stop-opacity="0"/>
<stop offset="0.651" stop-color="#AAAAAA" stop-opacity="0"/>
<stop offset="1" stop-color="#8A8A8A"/>
</linearGradient>
</defs>
</svg>
